<svg width="512" height="512" viewBox="0 0 512 512" xmlns="http://www.w3.org/2000/svg">
  <defs>
    <linearGradient id="gradient1" x1="0%" y1="0%" x2="100%" y2="100%">
      <stop offset="0%" style="stop-color:#2563eb;stop-opacity:1" />
      <stop offset="100%" style="stop-color:#1e40af;stop-opacity:1" />
    </linearGradient>
    <linearGradient id="gradient2" x1="0%" y1="0%" x2="100%" y2="100%">
      <stop offset="0%" style="stop-color:#059669;stop-opacity:1" />
      <stop offset="100%" style="stop-color:#047857;stop-opacity:1" />
    </linearGradient>
    <filter id="shadow" x="-20%" y="-20%" width="140%" height="140%">
      <feDropShadow dx="2" dy="4" stdDeviation="4" flood-opacity="0.3"/>
    </filter>
  </defs>
  
  <!-- Background circle -->
  <circle cx="256" cy="256" r="240" fill="url(#gradient1)" filter="url(#shadow)"/>
  
  <!-- Network nodes representing KNX devices -->
  <circle cx="150" cy="180" r="24" fill="#ffffff" opacity="0.9"/>
  <circle cx="362" cy="180" r="24" fill="#ffffff" opacity="0.9"/>
  <circle cx="256" cy="120" r="24" fill="#ffffff" opacity="0.9"/>
  <circle cx="180" cy="320" r="24" fill="#ffffff" opacity="0.9"/>
  <circle cx="332" cy="320" r="24" fill="#ffffff" opacity="0.9"/>
  
  <!-- Connection lines between nodes -->
  <line x1="150" y1="180" x2="256" y2="120" stroke="#ffffff" stroke-width="6" opacity="0.7"/>
  <line x1="362" y1="180" x2="256" y2="120" stroke="#ffffff" stroke-width="6" opacity="0.7"/>
  <line x1="150" y1="180" x2="180" y2="320" stroke="#ffffff" stroke-width="6" opacity="0.7"/>
  <line x1="362" y1="180" x2="332" y2="320" stroke="#ffffff" stroke-width="6" opacity="0.7"/>
  <line x1="180" y1="320" x2="332" y2="320" stroke="#ffffff" stroke-width="6" opacity="0.7"/>
  
  <!-- Central monitoring hub -->
  <circle cx="256" cy="256" r="48" fill="url(#gradient2)" stroke="#ffffff" stroke-width="4"/>
  
  <!-- Monitor/scope screen effect -->
  <rect x="232" y="232" width="48" height="48" rx="8" fill="#000000" opacity="0.8"/>
  
  <!-- Telegram/data visualization lines inside monitor -->
  <line x1="240" y1="245" x2="270" y2="245" stroke="#00ff00" stroke-width="2"/>
  <line x1="240" y1="250" x2="268" y2="250" stroke="#00ff00" stroke-width="2"/>
  <line x1="240" y1="255" x2="265" y2="255" stroke="#00ff00" stroke-width="2"/>
  <line x1="240" y1="260" x2="272" y2="260" stroke="#00ff00" stroke-width="2"/>
  <line x1="240" y1="265" x2="260" y2="265" stroke="#00ff00" stroke-width="2"/>
  
  
  <!-- KNX text at bottom -->
  <text x="256" y="420" font-family="Arial, sans-serif" font-size="32" font-weight="bold" 
        fill="#ffffff" text-anchor="middle" opacity="0.9">KNX</text>
  <text x="256" y="450" font-family="Arial, sans-serif" font-size="18" 
        fill="#ffffff" text-anchor="middle" opacity="0.7">TELEGRAM VIEWER</text>
</svg>